<svg width="112" height="112" viewBox="0 0 112 112" fill="none" xmlns="http://www.w3.org/2000/svg">
<path d="M56.0021 112C53.0209 112 50.6035 109.581 50.6035 106.604C50.6035 103.623 53.0223 101.207 56.0021 101.207C80.9653 101.162 101.161 80.9621 101.206 56C101.161 31.0379 80.9639 10.8421 56.0021 10.7974C31.0347 10.8407 10.8406 31.0379 10.7958 56C10.7958 58.9812 8.37842 61.3987 5.39862 61.3987C2.41602 61.3987 -2.31758e-06 58.9798 -2.44784e-06 56C0.0041931 25.0712 25.0709 0.00279889 56.0035 -2.44799e-06C86.9291 0.00279619 112 25.0712 112 56C111.999 86.9288 86.9277 111.994 56.0021 112Z" fill="#2DABE3" fill-opacity="0.15"/>
<path d="M0 56.0021C0 53.0209 2.41885 50.6035 5.39589 50.6035C8.37713 50.6035 10.7932 53.0223 10.7932 56.0021C10.8379 80.9653 31.0379 101.161 56 101.206C80.9621 101.161 101.158 80.9639 101.203 56.0021C101.159 31.0347 80.9621 10.8406 56 10.7958C53.0188 10.7958 50.6013 8.37842 50.6013 5.39862C50.6013 2.41602 53.0202 0 56 0C86.9288 0.0041969 111.997 25.0709 112 56.0035C111.997 86.9291 86.9288 112 56 112C25.0712 111.999 0.00559594 86.9277 0 56.0021Z" fill="#2DABE3"/>
</svg>
